<svg width="680" height="440" viewBox="0 0 680 440" xmlns="http://www.w3.org/2000/svg">
  <title>MedTheris Logo</title>
  <desc>MedTheris Praxis Management Software — offizielle Logosammlung</desc>

  <!-- Hintergrund hell -->
  <rect x="32" y="32" width="616" height="250" rx="14" fill="#F0FDF4" stroke="#BBF7D0" stroke-width="0.5"/>
  <!-- Hintergrund dunkel -->
  <rect x="32" y="300" width="616" height="116" rx="14" fill="#061409"/>

  <!-- Labels -->
  <text x="56" y="63" font-family="system-ui,sans-serif" font-size="10" letter-spacing="0.07em" text-transform="uppercase" fill="#6EE7B7">PRIMARY — HELL</text>
  <text x="56" y="332" font-family="system-ui,sans-serif" font-size="10" letter-spacing="0.07em" fill="#4ADE80">PRIMARY — DUNKEL</text>

  <!-- Icon gross hell -->
  <g transform="translate(62, 80)">
    <polygon points="32,2 60,18 60,50 32,66 4,50 4,18" fill="#059669"/>
    <polygon points="32,9 54,22 54,46 32,59 10,46 10,22" fill="none" stroke="white" stroke-width="0.7" opacity="0.2"/>
    <line x1="20" y1="26" x2="32" y2="44" stroke="white" stroke-width="1.4" opacity="0.7"/>
    <line x1="44" y1="26" x2="32" y2="44" stroke="white" stroke-width="1.4" opacity="0.7"/>
    <line x1="20" y1="26" x2="44" y2="26" stroke="white" stroke-width="1.4" opacity="0.7"/>
    <circle cx="20" cy="26" r="4" fill="#6EE7B7"/>
    <circle cx="44" cy="26" r="4" fill="white"/>
    <circle cx="32" cy="44" r="4" fill="#6EE7B7"/>
    <circle cx="20" cy="26" r="1.8" fill="#059669"/>
    <circle cx="44" cy="26" r="1.8" fill="#059669"/>
    <circle cx="32" cy="44" r="1.8" fill="#059669"/>
  </g>

  <!-- Wortmarke gross hell -->
  <text x="146" y="116" font-family="system-ui,sans-serif" font-size="40" font-weight="700" letter-spacing="-0.03em" fill="#064E3B">Med<tspan fill="#059669">Theris</tspan></text>
  <text x="147" y="138" font-family="system-ui,sans-serif" font-weight="400" font-size="9" letter-spacing="0.14em" fill="#34D399">PRAXIS MANAGEMENT SOFTWARE</text>

  <!-- Trennlinie -->
  <line x1="32" y1="210" x2="648" y2="210" stroke="#BBF7D0" stroke-width="0.5"/>
  <text x="56" y="232" font-family="system-ui,sans-serif" font-size="10" letter-spacing="0.07em" fill="#64748B">COMPACT</text>
  <text x="380" y="232" font-family="system-ui,sans-serif" font-size="10" letter-spacing="0.07em" fill="#64748B">MONOCHROM</text>

  <!-- Compact -->
  <g transform="translate(62, 240)">
    <polygon points="21,1.5 39,11.5 39,31.5 21,41.5 3,31.5 3,11.5" fill="#059669"/>
    <polygon points="21,7 34,15 34,29 21,36 8,29 8,15" fill="none" stroke="white" stroke-width="0.6" opacity="0.2"/>
    <line x1="13" y1="17" x2="21" y2="29" stroke="white" stroke-width="1.2" opacity="0.7"/>
    <line x1="29" y1="17" x2="21" y2="29" stroke="white" stroke-width="1.2" opacity="0.7"/>
    <line x1="13" y1="17" x2="29" y2="17" stroke="white" stroke-width="1.2" opacity="0.7"/>
    <circle cx="13" cy="17" r="2.8" fill="#6EE7B7"/>
    <circle cx="29" cy="17" r="2.8" fill="white"/>
    <circle cx="21" cy="29" r="2.8" fill="#6EE7B7"/>
    <circle cx="13" cy="17" r="1.2" fill="#059669"/>
    <circle cx="29" cy="17" r="1.2" fill="#059669"/>
    <circle cx="21" cy="29" r="1.2" fill="#059669"/>
  </g>
  <text x="112" y="268" font-family="system-ui,sans-serif" font-size="25" font-weight="700" letter-spacing="-0.025em" fill="#064E3B">Med<tspan fill="#059669">Theris</tspan></text>

  <!-- Monochrom -->
  <g transform="translate(386, 240)">
    <polygon points="21,1.5 39,11.5 39,31.5 21,41.5 3,31.5 3,11.5" fill="#064E3B"/>
    <polygon points="21,7 34,15 34,29 21,36 8,29 8,15" fill="none" stroke="white" stroke-width="0.6" opacity="0.18"/>
    <line x1="13" y1="17" x2="21" y2="29" stroke="white" stroke-width="1.2" opacity="0.7"/>
    <line x1="29" y1="17" x2="21" y2="29" stroke="white" stroke-width="1.2" opacity="0.7"/>
    <line x1="13" y1="17" x2="29" y2="17" stroke="white" stroke-width="1.2" opacity="0.7"/>
    <circle cx="13" cy="17" r="2.8" fill="white" opacity="0.6"/>
    <circle cx="29" cy="17" r="2.8" fill="white"/>
    <circle cx="21" cy="29" r="2.8" fill="white" opacity="0.6"/>
  </g>
  <text x="436" y="268" font-family="system-ui,sans-serif" font-size="25" font-weight="700" letter-spacing="-0.025em" fill="#064E3B">MedTheris</text>

  <!-- Dunkel gross -->
  <g transform="translate(62, 316)">
    <polygon points="32,2 60,18 60,50 32,66 4,50 4,18" fill="#059669"/>
    <polygon points="32,9 54,22 54,46 32,59 10,46 10,22" fill="none" stroke="white" stroke-width="0.7" opacity="0.18"/>
    <line x1="20" y1="26" x2="32" y2="44" stroke="white" stroke-width="1.4" opacity="0.7"/>
    <line x1="44" y1="26" x2="32" y2="44" stroke="white" stroke-width="1.4" opacity="0.7"/>
    <line x1="20" y1="26" x2="44" y2="26" stroke="white" stroke-width="1.4" opacity="0.7"/>
    <circle cx="20" cy="26" r="4" fill="#6EE7B7"/>
    <circle cx="44" cy="26" r="4" fill="white"/>
    <circle cx="32" cy="44" r="4" fill="#6EE7B7"/>
    <circle cx="20" cy="26" r="1.8" fill="#059669"/>
    <circle cx="44" cy="26" r="1.8" fill="#059669"/>
    <circle cx="32" cy="44" r="1.8" fill="#059669"/>
  </g>
  <text x="146" y="353" font-family="system-ui,sans-serif" font-size="40" font-weight="700" letter-spacing="-0.03em" fill="white">Med<tspan fill="#4ADE80">Theris</tspan></text>
  <text x="147" y="375" font-family="system-ui,sans-serif" font-weight="400" font-size="9" letter-spacing="0.14em" fill="#34D399">PRAXIS MANAGEMENT SOFTWARE</text>

  <!-- App-Icon -->
  <g transform="translate(480, 322)">
    <polygon points="28,2 52,16 52,44 28,58 4,44 4,16" fill="#059669"/>
    <polygon points="28,8 47,20 47,40 28,52 9,40 9,20" fill="none" stroke="white" stroke-width="0.6" opacity="0.2"/>
    <line x1="17" y1="23" x2="28" y2="39" stroke="white" stroke-width="1.3" opacity="0.7"/>
    <line x1="39" y1="23" x2="28" y2="39" stroke="white" stroke-width="1.3" opacity="0.7"/>
    <line x1="17" y1="23" x2="39" y2="23" stroke="white" stroke-width="1.3" opacity="0.7"/>
    <circle cx="17" cy="23" r="3.5" fill="#6EE7B7"/>
    <circle cx="39" cy="23" r="3.5" fill="white"/>
    <circle cx="28" cy="39" r="3.5" fill="#6EE7B7"/>
    <circle cx="17" cy="23" r="1.5" fill="#059669"/>
    <circle cx="39" cy="23" r="1.5" fill="#059669"/>
    <circle cx="28" cy="39" r="1.5" fill="#059669"/>
  </g>
  <text x="481" y="400" font-family="system-ui,sans-serif" font-size="10" letter-spacing="0.07em" fill="#4ADE80">APP-ICON</text>
</svg>
